<?xml version="1.0" standalone="no"?>
<!DOCTYPE svg PUBLIC "-//W3C//DTD SVG 20010904//EN"
 "http://www.w3.org/TR/2001/REC-SVG-20010904/DTD/svg10.dtd">
<svg version="1.0" xmlns="http://www.w3.org/2000/svg"
 width="109.000000pt" height="109.000000pt" viewBox="0 0 109.000000 109.000000"
 preserveAspectRatio="xMidYMid meet">
<metadata>
Created by potrace 1.11, written by Peter Selinger 2001-2013
</metadata>
<g transform="translate(0.000000,109.000000) scale(0.100000,-0.100000)"
fill="#000000" stroke="none">
<path d="M140 550 c0 -297 3 -540 8 -541 55 -4 762 0 769 4 8 5 12 141 12 434
l1 428 -107 107 -108 108 -287 0 -288 0 0 -540z m540 406 c0 -63 4 -97 13
-103 6 -5 51 -9 100 -8 51 0 87 -4 88 -10 1 -5 2 -184 3 -397 1 -382 1 -388
-19 -388 -20 -1 -645 -1 -677 0 -17 0 -18 31 -18 500 l0 500 255 0 255 0 0
-94z m165 -64 c-3 -3 -29 -6 -60 -7 -42 -1 -56 2 -60 14 -6 19 -4 93 3 104 2
5 31 -17 63 -49 32 -32 56 -60 54 -62z"/>
<path d="M421 769 c-63 -25 -141 -98 -167 -155 -23 -52 -27 -164 -8 -217 73
-209 333 -269 491 -115 146 143 101 398 -86 481 -68 30 -163 32 -230 6z m204
-70 c124 -58 172 -209 105 -326 -118 -206 -420 -131 -434 109 -4 57 28 134 71
174 68 65 175 82 258 43z"/>
<path d="M513 662 c-2 -9 -21 -26 -41 -37 -105 -57 -109 -191 -8 -253 24 -15
47 -35 49 -44 7 -24 28 -23 34 2 3 11 16 23 28 26 25 6 58 39 68 66 9 26 -24
26 -50 1 -27 -28 -93 -31 -117 -7 -34 34 -32 118 5 155 33 33 119 18 119 -22
0 -5 8 -9 18 -9 14 0 19 8 20 29 0 24 -6 33 -44 52 -26 15 -44 31 -44 41 0 23
-31 23 -37 0z"/>
</g>
</svg>
